<svg width="60" height="60" viewBox="0 0 60 60" fill="none" xmlns="http://www.w3.org/2000/svg">
<rect width="60" height="60" rx="30" fill="#FFE7DB"/>
<g clip-path="url(#clip0_1_501)">
<path d="M27.8141 47.865C24.6034 47.4488 21.2981 46.0718 18.8906 44.1446C13.4704 39.8201 11.01 32.988 12.4163 26.2031C13.0193 23.2736 14.5898 20.1911 16.6001 17.9704C18.0811 16.3037 19.867 14.9355 21.8618 13.9395C24.51 12.5974 27.0413 11.9944 30.0293 11.9944C32.1735 11.9944 33.897 12.2756 35.8714 12.9495C38.4652 13.8392 40.8216 15.3093 42.7611 17.2478C44.7006 19.1863 46.1719 21.542 47.0629 24.1354C48.1181 27.2291 48.3105 30.522 47.6366 33.7856C47.0978 36.3641 45.7084 39.2644 43.9984 41.3614C43.2953 42.2288 41.6775 43.7756 40.8281 44.4023C38.2871 46.2894 35.2986 47.4828 32.1566 47.865C31.2308 47.982 28.7108 47.9764 27.8153 47.865H27.8141ZM32.7191 46.3598C37.1047 45.6247 41.0187 43.1777 43.6001 39.5569C46.641 35.2853 47.4555 29.5545 45.7388 24.5573C45.3349 23.385 44.3325 21.4286 43.6001 20.397C42.7856 19.2428 40.7696 17.2211 39.6098 16.4066C38.4848 15.6101 36.5689 14.6426 35.2616 14.2151C32.9019 13.4312 30.3962 13.1874 27.9297 13.5019C25.4631 13.8164 23.0988 14.681 21.0113 16.032C19.0472 17.3222 17.3683 19.0011 16.0781 20.9651C14.7275 23.0515 13.863 25.4147 13.5485 27.8802C13.234 30.3456 13.4776 32.8501 14.2613 35.2088C14.6944 36.5149 15.6619 38.4375 16.4528 39.5625C17.2729 40.7168 19.2889 42.7384 20.4431 43.5529C21.4804 44.2796 23.4311 45.2809 24.6034 45.6915C27.2126 46.578 30.0001 46.8075 32.7191 46.3598ZM26.4844 40.3241C25.6433 40.1973 24.8363 39.9023 24.1118 39.4568C23.4615 39.0405 18.5509 34.23 18.3113 33.7789C18.0356 33.2636 18.516 32.3254 19.2023 32.0385L19.524 31.9035L18.534 30.8955C17.9895 30.3386 17.4731 29.7469 17.391 29.5826C17.1975 29.208 17.1919 28.4048 17.373 28.047C17.4495 27.9008 17.6306 27.678 17.7713 27.5543C18.012 27.3551 18.0345 27.2843 18.012 26.7803C17.9828 26.3348 18.0233 26.1593 18.2168 25.8251C18.498 25.3448 19.0785 25.0219 19.6466 25.0163C19.9628 25.0163 20.0449 24.9758 20.1799 24.7406C20.532 24.1253 21.5389 23.9025 22.3073 24.2783L22.7235 24.4774L22.9283 24.2783C23.2095 24.0206 23.772 23.7923 24.141 23.7923C24.879 23.7923 25.9219 24.6416 25.9219 25.239C25.9219 25.9534 25.2716 26.0771 24.627 25.4854C24.1995 25.0871 23.9824 25.0455 23.8069 25.3268C23.7191 25.4618 23.9295 25.7138 25.1895 26.985C26.4495 28.2506 26.6779 28.5206 26.6779 28.7603C26.6679 28.9439 26.5897 29.1173 26.4586 29.2463C26.3275 29.3753 26.1529 29.4507 25.9691 29.4578C25.7408 29.4578 25.3661 29.1293 23.637 27.4069C21.873 25.6485 21.5513 25.3673 21.4106 25.4561C21.0293 25.6969 21.1586 25.8724 23.2208 27.9401C24.3401 29.0651 25.2604 30.0608 25.2604 30.1553C25.2604 30.3488 25.0849 30.7065 24.9386 30.7999C24.8187 30.8526 24.6881 30.8768 24.5573 30.8708C24.3165 30.8764 23.9475 30.5423 21.9855 28.5859C20.0168 26.6284 19.6646 26.3123 19.524 26.4C19.137 26.6464 19.2664 26.8163 21.5108 29.0719C22.7359 30.297 23.7608 31.3928 23.79 31.5098C23.8541 31.7213 23.7135 32.0903 23.5268 32.2185C23.4028 32.2712 23.2687 32.2954 23.1341 32.2894C22.8934 32.2894 22.5896 32.0261 20.9663 30.4028C19.4014 28.8379 19.038 28.5161 18.8389 28.5341C18.2764 28.5983 18.4755 28.8503 21.3814 31.7629C23.9014 34.2885 24.2231 34.6463 24.2231 34.9095C24.2257 35.0062 24.2039 35.1019 24.1599 35.188C24.1159 35.2741 24.051 35.3477 23.9711 35.4023C23.52 35.76 23.3445 35.6779 22.2071 34.5765C21.6266 34.0196 21.0293 33.4808 20.8706 33.3806C20.5838 33.2051 19.857 33.1286 19.722 33.2693C19.6748 33.3098 20.7469 34.4415 22.1014 35.7825C24.357 38.0145 24.6146 38.244 25.2773 38.5601C25.8877 38.8641 26.56 39.0232 27.2419 39.0252C27.9238 39.0271 28.597 38.8719 29.2091 38.5714C31.1014 37.6691 32.151 35.4776 31.6346 33.4909C31.377 32.5009 31.0541 32.0261 29.7536 30.684C28.254 29.1484 27.9075 28.7265 27.5385 27.9885C27.1279 27.1628 26.9524 26.3595 26.9524 25.3571C26.9524 24.2726 27.0638 23.781 27.5441 22.7674C28.0009 21.801 28.956 20.7874 29.8999 20.2654C31.7516 19.2338 34.1895 19.3215 35.958 20.4769C36.3101 20.7053 37.5814 21.9011 39.1631 23.4885C41.5133 25.8443 41.7821 26.1491 41.7821 26.418C41.7821 27.057 41.2601 27.7658 40.6808 27.912C40.4636 27.9705 40.5053 28.029 41.4896 29.0314C42.0634 29.6119 42.5966 30.2385 42.6788 30.432C42.9544 31.0946 42.8306 31.7381 42.3266 32.2658C42.069 32.5358 42.0341 32.6291 42.0274 33.168C42.0218 33.6428 41.9689 33.8419 41.781 34.1119C41.6326 34.3315 41.4339 34.5126 41.2015 34.64C40.969 34.7673 40.7095 34.8374 40.4445 34.8443C40.0811 34.8443 40.0114 34.8791 39.8291 35.1548C39.4185 35.7881 38.352 36.0098 37.6613 35.6003L37.3159 35.3955L37.0695 35.6363C36.525 36.1583 35.6453 36.228 34.9781 35.8005C34.4393 35.4608 34.041 34.986 34.041 34.6868C34.041 34.4235 34.4224 33.9893 34.6564 33.9893C34.8791 33.9893 35.1784 34.1648 35.5181 34.482C35.8579 34.8038 36.1515 34.8038 36.1976 34.4764C36.2213 34.3009 35.94 33.9668 34.8026 32.8238C33.6068 31.6166 33.3784 31.341 33.3784 31.107C33.3757 30.9764 33.3998 30.8466 33.4493 30.7256C33.5786 30.5321 33.942 30.3971 34.1636 30.4556C34.2806 30.4849 35.2706 31.3995 36.3551 32.4829C37.4453 33.573 38.4004 34.4629 38.4881 34.4629C38.7289 34.4629 38.8864 34.2221 38.775 34.0174C38.7221 33.924 37.8019 32.9801 36.7354 31.9136C35.0659 30.2498 34.7959 29.9393 34.7959 29.6929C34.7904 29.5602 34.8146 29.428 34.8668 29.3059C34.9669 29.1596 35.3179 28.9841 35.517 28.9841C35.6048 28.9841 36.7061 30.009 37.9661 31.2634C40.2746 33.5606 40.4445 33.6889 40.6853 33.3086C40.773 33.168 40.4569 32.8103 38.4994 30.8471C36.4778 28.8199 36.2089 28.515 36.2089 28.2518C36.2089 28.0706 36.291 27.8828 36.4204 27.7658C36.8479 27.3619 36.9773 27.444 39.0574 29.5118C41.0261 31.4749 41.2016 31.6031 41.4424 31.2285C41.5301 31.0879 41.1319 30.6548 38.6884 28.2045C36.0278 25.5326 35.8354 25.3155 35.8354 25.005C35.8354 24.5359 36.1054 24.3131 36.6263 24.3491C36.7196 24.3548 37.2821 24.8295 37.8626 25.3976C38.4488 25.9658 39.081 26.499 39.2689 26.5811C39.6379 26.733 40.0654 26.7566 40.2476 26.6396C40.4231 26.5283 35.5598 21.7414 34.9275 21.4073C34.3854 21.1147 33.7892 20.9361 33.1755 20.8826C32.5618 20.8291 31.9436 20.9017 31.359 21.096C30.7745 21.2904 30.2359 21.6023 29.7764 22.0126C29.3168 22.4229 28.9462 22.9228 28.6871 23.4818C28.3823 24.132 28.3418 24.3255 28.3001 25.1636C28.2653 25.9545 28.2945 26.2009 28.4644 26.7049C28.7693 27.6015 29.0325 27.9705 30.3983 29.3655C31.8754 30.8775 32.1566 31.2229 32.5313 32.0318C33.5865 34.2818 33.141 36.8839 31.4006 38.6175C30.0765 39.9473 28.272 40.5683 26.4844 40.323V40.3241Z" fill="#F77E23"/>
</g>
<defs>
<clipPath id="clip0_1_501">
<rect width="36" height="36" fill="white" transform="translate(12 12)"/>
</clipPath>
</defs>
</svg>
