<svg width="126" height="41" viewBox="0 0 126 41" fill="none" xmlns="http://www.w3.org/2000/svg">
<path d="M2.7224 32V10.5488H15.6784V13.7632H6.5272V19.8312H14.3336V23.0456H6.5272V32H2.7224ZM25.195 32.3936C23.8611 32.3936 22.6147 32.0656 21.4558 31.4096C20.2969 30.7317 19.3566 29.7696 18.635 28.5232C17.9134 27.2549 17.5526 25.7352 17.5526 23.964C17.5526 22.1709 17.9134 20.6512 18.635 19.4048C19.3566 18.1365 20.2969 17.1744 21.4558 16.5184C22.6147 15.8405 23.8611 15.5016 25.195 15.5016C26.5507 15.5016 27.8081 15.8405 28.967 16.5184C30.1259 17.1744 31.0662 18.1365 31.7878 19.4048C32.5094 20.6512 32.8702 22.1709 32.8702 23.964C32.8702 25.7352 32.5094 27.2549 31.7878 28.5232C31.0662 29.7696 30.1259 30.7317 28.967 31.4096C27.8081 32.0656 26.5507 32.3936 25.195 32.3936ZM25.195 29.3104C26.3758 29.3104 27.3051 28.8184 27.983 27.8344C28.6609 26.8504 28.9998 25.5603 28.9998 23.964C28.9998 22.3459 28.6609 21.0448 27.983 20.0608C27.3051 19.0768 26.3758 18.5848 25.195 18.5848C24.0142 18.5848 23.0849 19.0768 22.407 20.0608C21.751 21.0448 21.423 22.3459 21.423 23.964C21.423 25.5603 21.751 26.8504 22.407 27.8344C23.0849 28.8184 24.0142 29.3104 25.195 29.3104ZM41.3926 32.3936C39.6651 32.3936 38.4078 31.836 37.6206 30.7208C36.8334 29.6056 36.4398 28.0312 36.4398 25.9976V15.8952H40.2118V25.5056C40.2118 26.8395 40.4086 27.7797 40.8022 28.3264C41.1958 28.8731 41.8299 29.1464 42.7046 29.1464C43.4043 29.1464 44.0166 28.9715 44.5414 28.6216C45.088 28.2717 45.6675 27.7032 46.2798 26.916V15.8952H50.0518V32H46.9686L46.6734 29.6384H46.575C45.8752 30.4693 45.1099 31.1363 44.279 31.6392C43.448 32.1421 42.4859 32.3936 41.3926 32.3936ZM54.8296 32V15.8952H57.9456L58.208 18.06H58.3392C59.0608 17.3603 59.848 16.7589 60.7008 16.256C61.5536 15.7531 62.5266 15.5016 63.62 15.5016C65.3474 15.5016 66.6048 16.0592 67.392 17.1744C68.1792 18.2896 68.5728 19.864 68.5728 21.8976V32H64.8008V22.3896C64.8008 21.0557 64.604 20.1155 64.2104 19.5688C63.8168 19.0221 63.1717 18.7488 62.2752 18.7488C61.5754 18.7488 60.9522 18.9237 60.4056 19.2736C59.8808 19.6016 59.2794 20.0936 58.6016 20.7496V32H54.8296ZM78.8579 32.3936C76.9992 32.3936 75.6763 31.8579 74.8891 30.7864C74.1237 29.6931 73.7411 28.2827 73.7411 26.5552V18.88H71.4451V16.0592L73.9379 15.8952L74.3971 11.5H77.5459V15.8952H81.6459V18.88H77.5459V26.5552C77.5459 28.4357 78.3003 29.376 79.8091 29.376C80.0933 29.376 80.3885 29.3432 80.6947 29.2776C81.0008 29.1901 81.2632 29.1027 81.4819 29.0152L82.1379 31.8032C81.7005 31.9563 81.1976 32.0875 80.6291 32.1968C80.0824 32.328 79.492 32.3936 78.8579 32.3936ZM88.2335 32.3936C86.8341 32.3936 85.6861 31.9563 84.7895 31.0816C83.9149 30.2069 83.4775 29.0699 83.4775 27.6704C83.4775 25.9429 84.2319 24.6091 85.7407 23.6688C87.2495 22.7067 89.6549 22.0507 92.9567 21.7008C92.9349 20.848 92.7053 20.1155 92.2679 19.5032C91.8525 18.8691 91.0981 18.552 90.0047 18.552C89.2175 18.552 88.4413 18.7051 87.6759 19.0112C86.9325 19.3173 86.1999 19.6891 85.4783 20.1264L84.1007 17.6008C84.9973 17.0323 86.0031 16.5403 87.1183 16.1248C88.2554 15.7093 89.4581 15.5016 90.7263 15.5016C92.7381 15.5016 94.2359 16.1029 95.2199 17.3056C96.2258 18.4864 96.7287 20.2029 96.7287 22.4552V32H93.6127L93.3503 30.2288H93.2191C92.4975 30.8411 91.7213 31.3549 90.8903 31.7704C90.0813 32.1859 89.1957 32.3936 88.2335 32.3936ZM89.4471 29.4416C90.1031 29.4416 90.6935 29.2885 91.2183 28.9824C91.765 28.6544 92.3445 28.2171 92.9567 27.6704V24.0624C90.7701 24.3467 89.2503 24.7731 88.3975 25.3416C87.5447 25.8883 87.1183 26.5661 87.1183 27.3752C87.1183 28.0968 87.337 28.6216 87.7743 28.9496C88.2117 29.2776 88.7693 29.4416 89.4471 29.4416ZM101.243 32V15.8952H105.015V32H101.243ZM103.145 13.0744C102.467 13.0744 101.921 12.8776 101.505 12.484C101.09 12.0904 100.882 11.5656 100.882 10.9096C100.882 10.2755 101.09 9.7616 101.505 9.368C101.921 8.9744 102.467 8.7776 103.145 8.7776C103.823 8.7776 104.37 8.9744 104.785 9.368C105.201 9.7616 105.408 10.2755 105.408 10.9096C105.408 11.5656 105.201 12.0904 104.785 12.484C104.37 12.8776 103.823 13.0744 103.145 13.0744ZM109.827 32V15.8952H112.943L113.206 18.06H113.337C114.058 17.3603 114.846 16.7589 115.698 16.256C116.551 15.7531 117.524 15.5016 118.618 15.5016C120.345 15.5016 121.602 16.0592 122.39 17.1744C123.177 18.2896 123.57 19.864 123.57 21.8976V32H119.798V22.3896C119.798 21.0557 119.602 20.1155 119.208 19.5688C118.814 19.0221 118.169 18.7488 117.273 18.7488C116.573 18.7488 115.95 18.9237 115.403 19.2736C114.878 19.6016 114.277 20.0936 113.599 20.7496V32H109.827Z" fill="#F77E23"/>
<circle cx="38.5" cy="11.5" r="2.5" fill="#F77D27"/>
<circle cx="47.5" cy="11.5" r="2.5" fill="#F77D27"/>
</svg>
