<svg width="190" height="190" viewBox="0 0 190 190" fill="none" xmlns="http://www.w3.org/2000/svg">
<g filter="url(#filter0_d_1_846)">
<rect x="70" y="70" width="50" height="50" rx="25" fill="#F77E23"/>
<path d="M103.344 95.7852L95.5648 86.8203C95.4945 86.7392 95.4075 86.6741 95.3099 86.6296C95.2122 86.585 95.1061 86.5619 94.9988 86.5619C94.8914 86.5619 94.7853 86.585 94.6877 86.6296C94.59 86.6741 94.5031 86.7392 94.4328 86.8203L86.6562 95.7852C86.6327 95.8122 86.6175 95.8454 86.6123 95.8808C86.6071 95.9163 86.6123 95.9524 86.6271 95.985C86.6419 96.0176 86.6658 96.0453 86.6959 96.0647C86.726 96.0841 86.761 96.0945 86.7968 96.0945H88.6953C88.8031 96.0945 88.9062 96.0477 88.9789 95.9656L94.1093 90.0524V103.25C94.1093 103.353 94.1937 103.438 94.2968 103.438H95.7031C95.8062 103.438 95.8906 103.353 95.8906 103.25V90.0524L101.021 95.9656C101.091 96.0477 101.194 96.0945 101.305 96.0945H103.203C103.362 96.0945 103.449 95.907 103.344 95.7852Z" fill="white"/>
</g>
<defs>
<filter id="filter0_d_1_846" x="0.766663" y="0.766663" width="188.467" height="188.467" filterUnits="userSpaceOnUse" color-interpolation-filters="sRGB">
<feFlood flood-opacity="0" result="BackgroundImageFix"/>
<feColorMatrix in="SourceAlpha" type="matrix" values="0 0 0 0 0 0 0 0 0 0 0 0 0 0 0 0 0 0 127 0" result="hardAlpha"/>
<feOffset/>
<feGaussianBlur stdDeviation="34.6167"/>
<feComposite in2="hardAlpha" operator="out"/>
<feColorMatrix type="matrix" values="0 0 0 0 0.4375 0 0 0 0 0.4375 0 0 0 0 0.4375 0 0 0 0.25 0"/>
<feBlend mode="normal" in2="BackgroundImageFix" result="effect1_dropShadow_1_846"/>
<feBlend mode="normal" in="SourceGraphic" in2="effect1_dropShadow_1_846" result="shape"/>
</filter>
</defs>
</svg>
